<svg width="400" height="300" viewBox="0 0 400 300" xmlns="http://www.w3.org/2000/svg">
    <!-- Background Shape -->
    <path d="M50,150 Q200,50 350,150 Q200,250 50,150" fill="url(#bgGradient)" opacity="0.1"/>
    
    <!-- Book Shape -->
    <g transform="translate(100, 75)">
        <!-- Book Cover -->
        <path d="M20,20 L180,20 C190,20 200,30 200,40 L200,180 C200,190 190,200 180,200 L20,200 C10,200 0,190 0,180 L0,40 C0,30 10,20 20,20" fill="white" filter="url(#shadow)"/>
        
        <!-- Book Pages -->
        <path d="M180,20 L180,200 C180,190 170,180 160,180 L20,180 C10,180 0,170 0,160 L0,40 C0,30 10,20 20,20 L180,20" fill="#f0f9ff"/>
        
        <!-- Book Lines -->
        <line x1="40" y1="60" x2="160" y2="60" stroke="#e2e8f0" stroke-width="2"/>
        <line x1="40" y1="90" x2="140" y2="90" stroke="#e2e8f0" stroke-width="2"/>
        <line x1="40" y1="120" x2="160" y2="120" stroke="#e2e8f0" stroke-width="2"/>
        <line x1="40" y1="150" x2="120" y2="150" stroke="#e2e8f0" stroke-width="2"/>
    </g>
    
    <!-- Floating Elements -->
    <circle cx="50" cy="50" r="20" fill="url(#accentGradient)"/>
    <circle cx="350" cy="250" r="25" fill="url(#accentGradient2)"/>
    
    <!-- Decorative Lines -->
    <path d="M30,100 Q80,150 30,200" stroke="url(#lineGradient)" stroke-width="2" fill="none"/>
    <path d="M370,100 Q320,150 370,200" stroke="url(#lineGradient2)" stroke-width="2" fill="none"/>
    
    <!-- Definitions -->
    <defs>
        <linearGradient id="bgGradient" x1="0%" y1="0%" x2="100%" y2="100%">
            <stop offset="0%" style="stop-color:#0ea5e9"/>
            <stop offset="100%" style="stop-color:#38bdf8"/>
        </linearGradient>
        <linearGradient id="accentGradient" x1="0%" y1="0%" x2="100%" y2="0%">
            <stop offset="0%" style="stop-color:#0ea5e9"/>
            <stop offset="100%" style="stop-color:#38bdf8"/>
        </linearGradient>
        <linearGradient id="accentGradient2" x1="0%" y1="0%" x2="100%" y2="0%">
            <stop offset="0%" style="stop-color:#38bdf8"/>
            <stop offset="100%" style="stop-color:#7dd3fc"/>
        </linearGradient>
        <linearGradient id="lineGradient" x1="0%" y1="0%" x2="100%" y2="0%">
            <stop offset="0%" style="stop-color:#0ea5e9"/>
            <stop offset="100%" style="stop-color:#38bdf8"/>
        </linearGradient>
        <linearGradient id="lineGradient2" x1="0%" y1="0%" x2="100%" y2="0%">
            <stop offset="0%" style="stop-color:#38bdf8"/>
            <stop offset="100%" style="stop-color:#7dd3fc"/>
        </linearGradient>
        <filter id="shadow" x="-20%" y="-20%" width="140%" height="140%">
            <feGaussianBlur in="SourceAlpha" stdDeviation="5"/>
            <feOffset dx="0" dy="4"/>
            <feComponentTransfer>
                <feFuncA type="linear" slope="0.2"/>
            </feComponentTransfer>
            <feMerge>
                <feMergeNode/>
                <feMergeNode in="SourceGraphic"/>
            </feMerge>
        </filter>
    </defs>
</svg> 